<svg xmlns="http://www.w3.org/2000/svg" viewBox="0 0 41 41" shape-rendering="crispEdges" role="img" aria-label="LinkedIn QR code"><rect width="41" height="41" fill="#fff"/><path fill="#000" d="M4 4h7v1H4zM13 4h4v1H13zM20 4h1v1H20zM22 4h4v1H22zM27 4h1v1H27zM30 4h7v1H30zM4 5h1v1H4zM10 5h1v1H10zM13 5h1v1H13zM15 5h2v1H15zM19 5h1v1H19zM22 5h1v1H22zM25 5h1v1H25zM28 5h1v1H28zM30 5h1v1H30zM36 5h1v1H36zM4 6h1v1H4zM6 6h3v1H6zM10 6h1v1H10zM12 6h1v1H12zM18 6h1v1H18zM20 6h1v1H20zM23 6h4v1H23zM30 6h1v1H30zM32 6h3v1H32zM36 6h1v1H36zM4 7h1v1H4zM6 7h3v1H6zM10 7h1v1H10zM12 7h5v1H12zM19 7h1v1H19zM22 7h2v1H22zM25 7h1v1H25zM27 7h2v1H27zM30 7h1v1H30zM32 7h3v1H32zM36 7h1v1H36zM4 8h1v1H4zM6 8h3v1H6zM10 8h1v1H10zM12 8h4v1H12zM18 8h3v1H18zM24 8h1v1H24zM26 8h1v1H26zM30 8h1v1H30zM32 8h3v1H32zM36 8h1v1H36zM4 9h1v1H4zM10 9h1v1H10zM12 9h1v1H12zM14 9h3v1H14zM18 9h1v1H18zM21 9h3v1H21zM25 9h1v1H25zM27 9h2v1H27zM30 9h1v1H30zM36 9h1v1H36zM4 10h7v1H4zM12 10h1v1H12zM14 10h1v1H14zM16 10h1v1H16zM18 10h1v1H18zM20 10h1v1H20zM22 10h1v1H22zM24 10h1v1H24zM26 10h1v1H26zM28 10h1v1H28zM30 10h7v1H30zM12 11h1v1H12zM14 11h1v1H14zM16 11h1v1H16zM18 11h1v1H18zM20 11h1v1H20zM23 11h5v1H23zM4 12h1v1H4zM6 12h5v1H6zM14 12h1v1H14zM16 12h3v1H16zM20 12h2v1H20zM23 12h1v1H23zM26 12h3v1H26zM30 12h5v1H30zM5 13h4v1H5zM12 13h3v1H12zM17 13h2v1H17zM20 13h4v1H20zM27 13h1v1H27zM30 13h2v1H30zM33 13h4v1H33zM7 14h1v1H7zM10 14h2v1H10zM13 14h2v1H13zM16 14h6v1H16zM26 14h1v1H26zM28 14h2v1H28zM32 14h1v1H32zM34 14h2v1H34zM4 15h1v1H4zM6 15h3v1H6zM11 15h1v1H11zM14 15h4v1H14zM20 15h5v1H20zM27 15h1v1H27zM29 15h1v1H29zM32 15h4v1H32zM4 16h3v1H4zM9 16h2v1H9zM12 16h1v1H12zM14 16h2v1H14zM18 16h1v1H18zM20 16h1v1H20zM23 16h7v1H23zM32 16h2v1H32zM36 16h1v1H36zM9 17h1v1H9zM14 17h2v1H14zM19 17h1v1H19zM21 17h2v1H21zM28 17h3v1H28zM33 17h4v1H33zM4 18h1v1H4zM7 18h5v1H7zM14 18h1v1H14zM19 18h3v1H19zM24 18h1v1H24zM26 18h1v1H26zM29 18h3v1H29zM35 18h1v1H35zM5 19h5v1H5zM12 19h1v1H12zM14 19h1v1H14zM16 19h4v1H16zM25 19h1v1H25zM27 19h1v1H27zM29 19h6v1H29zM4 20h1v1H4zM7 20h4v1H7zM15 20h2v1H15zM19 20h1v1H19zM21 20h1v1H21zM26 20h4v1H26zM31 20h2v1H31zM36 20h1v1H36zM5 21h4v1H5zM11 21h2v1H11zM14 21h2v1H14zM17 21h1v1H17zM22 21h4v1H22zM27 21h5v1H27zM33 21h2v1H33zM36 21h1v1H36zM5 22h2v1H5zM9 22h2v1H9zM14 22h1v1H14zM19 22h1v1H19zM22 22h1v1H22zM24 22h2v1H24zM31 22h2v1H31zM34 22h2v1H34zM4 23h3v1H4zM8 23h1v1H8zM12 23h2v1H12zM16 23h1v1H16zM18 23h1v1H18zM20 23h1v1H20zM25 23h3v1H25zM30 23h5v1H30zM36 23h1v1H36zM4 24h2v1H4zM10 24h7v1H10zM18 24h1v1H18zM22 24h2v1H22zM25 24h1v1H25zM28 24h2v1H28zM31 24h3v1H31zM4 25h5v1H4zM12 25h1v1H12zM16 25h2v1H16zM19 25h3v1H19zM24 25h1v1H24zM26 25h3v1H26zM30 25h1v1H30zM33 25h2v1H33zM36 25h1v1H36zM4 26h1v1H4zM6 26h1v1H6zM8 26h1v1H8zM10 26h3v1H10zM15 26h4v1H15zM23 26h1v1H23zM28 26h2v1H28zM31 26h1v1H31zM33 26h3v1H33zM4 27h1v1H4zM6 27h1v1H6zM9 27h1v1H9zM13 27h2v1H13zM17 27h1v1H17zM20 27h1v1H20zM23 27h5v1H23zM29 27h2v1H29zM33 27h4v1H33zM4 28h1v1H4zM6 28h2v1H6zM9 28h2v1H9zM12 28h1v1H12zM14 28h1v1H14zM16 28h1v1H16zM18 28h1v1H18zM21 28h3v1H21zM26 28h7v1H26zM36 28h1v1H36zM12 29h1v1H12zM14 29h1v1H14zM16 29h2v1H16zM20 29h5v1H20zM27 29h2v1H27zM32 29h1v1H32zM34 29h3v1H34zM4 30h7v1H4zM13 30h3v1H13zM17 30h5v1H17zM26 30h3v1H26zM30 30h1v1H30zM32 30h1v1H32zM34 30h2v1H34zM4 31h1v1H4zM10 31h1v1H10zM12 31h1v1H12zM17 31h3v1H17zM21 31h2v1H21zM24 31h1v1H24zM27 31h2v1H27zM32 31h3v1H32zM4 32h1v1H4zM6 32h3v1H6zM10 32h1v1H10zM12 32h2v1H12zM18 32h1v1H18zM20 32h1v1H20zM24 32h3v1H24zM28 32h6v1H28zM35 32h1v1H35zM4 33h1v1H4zM6 33h3v1H6zM10 33h1v1H10zM12 33h2v1H12zM17 33h1v1H17zM19 33h1v1H19zM21 33h2v1H21zM25 33h1v1H25zM27 33h1v1H27zM29 33h1v1H29zM32 33h2v1H32zM36 33h1v1H36zM4 34h1v1H4zM6 34h3v1H6zM10 34h1v1H10zM12 34h2v1H12zM15 34h1v1H15zM17 34h1v1H17zM19 34h3v1H19zM24 34h8v1H24zM34 34h1v1H34zM4 35h1v1H4zM10 35h1v1H10zM15 35h1v1H15zM17 35h1v1H17zM19 35h1v1H19zM25 35h2v1H25zM32 35h3v1H32zM4 36h7v1H4zM12 36h1v1H12zM15 36h1v1H15zM18 36h2v1H18zM21 36h1v1H21zM26 36h4v1H26zM31 36h1v1H31zM33 36h1v1H33zM35 36h1v1H35z"/></svg>
